/* XPM */
static char * floating_xpm[] = {
"18 11 3 1",
" 	c None",
".	c None",
"+	c #4E4E4E",
"......            ",
".++++.            ",
".++++.            ",
".++++.+++++++     ",
".++++.+++++++     ",
".++++.+++.........",
".++++.+++.+++++++.",
".++++.....+++++++.",
".++++.   .+++++++.",
"......   .+++++++.",
"         ........."};
